<svg 
 xmlns="http://www.w3.org/2000/svg"
 xmlns:xlink="http://www.w3.org/1999/xlink"
 width="21pt" height="5pt">
<path fill-rule="evenodd"  fill="rgb(0, 184, 160)"
 d="M18.500,5.000 C17.119,5.000 16.000,3.881 16.000,2.500 C16.000,1.119 17.119,-0.000 18.500,-0.000 C19.881,-0.000 21.000,1.119 21.000,2.500 C21.000,3.881 19.881,5.000 18.500,5.000 ZM10.500,5.000 C9.119,5.000 8.000,3.881 8.000,2.500 C8.000,1.119 9.119,-0.000 10.500,-0.000 C11.881,-0.000 13.000,1.119 13.000,2.500 C13.000,3.881 11.881,5.000 10.500,5.000 ZM2.500,5.000 C1.119,5.000 -0.000,3.881 -0.000,2.500 C-0.000,1.119 1.119,-0.000 2.500,-0.000 C3.881,-0.000 5.000,1.119 5.000,2.500 C5.000,3.881 3.881,5.000 2.500,5.000 Z"/>
</svg>