<svg xmlns="http://www.w3.org/2000/svg" viewBox="0 0 21 23"><defs><style>.cls-1{fill:#cdcdcd;}</style></defs><title>bookeeping</title><g id="Layer_2" data-name="Layer 2"><g id="Layer_1-2" data-name="Layer 1"><g id="bookeeping"><path class="cls-1" d="M13,0H2A2,2,0,0,0,0,2V19a2,2,0,0,0,2,2H6C5.94,10.53,5.14,9,13,9h2V2A2,2,0,0,0,13,0Zm.23,6a1,1,0,0,1-1,1H2.77a1,1,0,0,1-1-1V3a1,1,0,0,1,1-1h9.47a1,1,0,0,1,1,1Z"/><path class="cls-1" d="M20.51,18a2.55,2.55,0,0,0,0-3A2.45,2.45,0,0,0,21,13.5c0-3.25-5.36-3.5-7-3.5s-7,.25-7,3.5A2.45,2.45,0,0,0,7.49,15a2.55,2.55,0,0,0,0,3A2.45,2.45,0,0,0,7,19.5c0,3.25,5.36,3.5,7,3.5s7-.25,7-3.5a2.45,2.45,0,0,0-.49-1.5M14,12c2.76,0,5,.67,5,1.5a.55.55,0,0,1-.12.32C18.4,14.49,16.4,15,14,15s-4.4-.51-4.88-1.18A.55.55,0,0,1,9,13.5C9,12.67,11.24,12,14,12Zm0,9c-2.76,0-5-.67-5-1.5a.55.55,0,0,1,.12-.32A13.62,13.62,0,0,0,14,20a13.62,13.62,0,0,0,4.88-.82.55.55,0,0,1,.12.32C19,20.33,16.76,21,14,21Zm.44-3H14c-2.4,0-4.4-.51-4.88-1.18a.49.49,0,0,1,0-.63,7.56,7.56,0,0,0,.89.32,15.42,15.42,0,0,0,4,.5,15.42,15.42,0,0,0,4-.5,7.56,7.56,0,0,0,.89-.32.49.49,0,0,1,0,.63C18.43,17.45,16.64,17.94,14.44,18Z"/></g></g></g></svg>