<svg xmlns="http://www.w3.org/2000/svg" xmlns:xlink="http://www.w3.org/1999/xlink" preserveAspectRatio="xMidYMid" width="22" height="20.5" viewBox="0 0 22 20.5">
  <defs>
    <style>
      .cls-1 {
        stroke: #66afb5;
        stroke-width: 1px;
        fill: none;
      }

      .cls-2 {
        fill: #66afb5;
        fill-rule: evenodd;
      }
    </style>
  </defs>
  <g>
    <rect x="0.5" y="4" width="21" height="16" class="cls-1"/>
    <path d="M1.000,0.000 L20.000,0.000 C20.552,0.000 21.000,0.448 21.000,1.000 L21.000,5.000 L0.000,5.000 L0.000,1.000 C0.000,0.448 0.448,0.000 1.000,0.000 Z" class="cls-2"/>
    <path d="M14.000,11.000 L14.000,8.000 L17.000,8.000 L17.000,11.000 L14.000,11.000 ZM9.000,8.000 L12.000,8.000 L12.000,11.000 L9.000,11.000 L9.000,8.000 ZM4.000,8.000 L7.000,8.000 L7.000,11.000 L4.000,11.000 L4.000,8.000 Z" class="cls-2"/>
    <path d="M14.000,16.000 L14.000,13.000 L17.000,13.000 L17.000,16.000 L14.000,16.000 ZM9.000,13.000 L12.000,13.000 L12.000,16.000 L9.000,16.000 L9.000,13.000 ZM4.000,13.000 L7.000,13.000 L7.000,16.000 L4.000,16.000 L4.000,13.000 Z" class="cls-2"/>
  </g>
</svg>
