<svg xmlns="http://www.w3.org/2000/svg" viewBox="0 0 22.49 18.89"><defs><style>.cls-1{fill:#cdcdcd;}</style></defs><title>collection</title><g id="Layer_2" data-name="Layer 2"><g id="Layer_1-2" data-name="Layer 1"><g id="cellection"><path class="cls-1" d="M11.24,10c6.22,0,11.24-2.25,11.24-5s-5-5-11.24-5S0,2.25,0,5,5,10,11.24,10ZM11,1.45v-1h1.15v1H13.6V2.64H10.78s-.94,0-.94.46.94.47.94.47h1.39c1.47,0,2.46.48,2.46,1.66,0,1.83-2.42,1.65-2.42,1.65V8H11V6.88H9V5.69h3.59c.41,0,.82-.11.82-.46a.7.7,0,0,0-.82-.47h-1.9s-2.06,0-2.06-1.62C8.68,1.26,11,1.45,11,1.45Z"/><path class="cls-1" d="M11.26,15.78h0C5.39,15.78.59,14,.06,11.49v2.88c0,2.65,5,4.52,11.17,4.52s11.19-2,11.19-4.62V11.6C21.79,14.08,17,15.78,11.26,15.78Z"/><path class="cls-1" d="M11.26,11.29h0C5.39,11.29.59,9.53.06,7V9.88c0,2.65,5,4.52,11.17,4.52s11.19-2,11.19-4.62V7.1C21.79,9.58,17,11.29,11.26,11.29Z"/></g></g></g></svg>