<svg xmlns="http://www.w3.org/2000/svg" xmlns:xlink="http://www.w3.org/1999/xlink" preserveAspectRatio="xMidYMid" width="22.5" height="18.876" viewBox="0 0 22.5 18.876">
  <defs>
    <style>
      .cls-1 {
        fill: #cdcdcd;
      }

      .cls-1, .cls-2 {
        fill-rule: evenodd;
      }

      .cls-2 {
        fill: #f4f3f0;
      }
    </style>
  </defs>
  <g>
    <path d="M11.250,9.983 C5.029,9.983 0.007,7.735 0.007,4.988 C0.007,2.241 5.029,-0.007 11.250,-0.007 C17.471,-0.007 22.493,2.216 22.493,4.988 C22.493,7.735 17.471,9.983 11.250,9.983 ZM11.262,11.279 C17.048,11.279 21.794,9.575 22.430,7.093 L22.430,9.768 C22.430,12.415 17.409,14.388 11.237,14.388 C5.066,14.388 0.070,12.515 0.070,9.868 L0.070,6.987 C0.596,9.520 5.395,11.279 11.262,11.279 ZM11.262,15.773 C17.048,15.773 21.794,14.070 22.430,11.588 L22.430,14.263 C22.430,16.910 17.409,18.883 11.237,18.883 C5.066,18.883 0.070,17.010 0.070,14.362 L0.070,11.482 C0.596,14.014 5.395,15.773 11.262,15.773 Z" class="cls-1"/>
    <path d="M14.650,5.223 C14.650,7.050 12.232,6.869 12.232,6.869 L12.232,7.988 L11.046,7.988 L11.046,6.869 L9.051,6.869 L9.051,5.684 L12.643,5.684 C13.050,5.684 13.466,5.571 13.466,5.220 C13.466,4.869 12.993,4.755 12.651,4.755 L10.749,4.755 C10.749,4.755 8.688,4.766 8.688,3.137 C8.688,1.253 11.046,1.445 11.046,1.445 L11.046,0.461 L12.198,0.461 L12.198,1.445 L13.603,1.445 L13.603,2.630 L10.790,2.630 C10.790,2.630 9.854,2.602 9.854,3.088 C9.854,3.573 10.798,3.562 10.798,3.562 L12.186,3.562 C13.659,3.562 14.650,4.042 14.650,5.223 L14.650,5.223 Z" class="cls-2"/>
  </g>
</svg>
