<svg xmlns="http://www.w3.org/2000/svg" viewBox="0 0 27.02 20">
<path id="facility" d="M26.51,10h-19a.46.46,0,0,0-.51.51V20H17V15h3.92v5H27V10.74A.67.67,0,0,0,26.51,10ZM5,9.74A2,2,0,0,1,6.39,8H13l0-7.25A.71.71,0,0,0,12.34,0H.71A.71.71,0,0,0,0,.71H0V20H5Z"/>
<g id="bookeeping">
	<path d="M13,0H2A2,2,0,0,0,0,2V19a2,2,0,0,0,2,2H6C5.94,10.53,5.14,9,13,9h2V2A2,2,0,0,0,13,0Zm.23,6a1,1,0,0,1-1,1H2.77a1,1,0,0,1-1-1V3a1,1,0,0,1,1-1h9.47a1,1,0,0,1,1,1Z"/><path d="M20.51,18a2.55,2.55,0,0,0,0-3A2.45,2.45,0,0,0,21,13.5c0-3.25-5.36-3.5-7-3.5s-7,.25-7,3.5A2.45,2.45,0,0,0,7.49,15a2.55,2.55,0,0,0,0,3A2.45,2.45,0,0,0,7,19.5c0,3.25,5.36,3.5,7,3.5s7-.25,7-3.5a2.45,2.45,0,0,0-.49-1.5M14,12c2.76,0,5,.67,5,1.5a.55.55,0,0,1-.12.32C18.4,14.49,16.4,15,14,15s-4.4-.51-4.88-1.18A.55.55,0,0,1,9,13.5C9,12.67,11.24,12,14,12Zm0,9c-2.76,0-5-.67-5-1.5a.55.55,0,0,1,.12-.32A13.62,13.62,0,0,0,14,20a13.62,13.62,0,0,0,4.88-.82.55.55,0,0,1,.12.32C19,20.33,16.76,21,14,21Zm.44-3H14c-2.4,0-4.4-.51-4.88-1.18a.49.49,0,0,1,0-.63,7.56,7.56,0,0,0,.89.32,15.42,15.42,0,0,0,4,.5,15.42,15.42,0,0,0,4-.5,7.56,7.56,0,0,0,.89-.32.49.49,0,0,1,0,.63C18.43,17.45,16.64,17.94,14.44,18Z"/>
</g>
<g id="collection">
<path d="M11.24,10c6.22,0,11.24-2.25,11.24-5s-5-5-11.24-5S0,2.25,0,5,5,10,11.24,10ZM11,1.45v-1h1.15v1H13.6V2.64H10.78s-.94,0-.94.46.94.47.94.47h1.39c1.47,0,2.46.48,2.46,1.66,0,1.83-2.42,1.65-2.42,1.65V8H11V6.88H9V5.69h3.59c.41,0,.82-.11.82-.46a.7.7,0,0,0-.82-.47h-1.9s-2.06,0-2.06-1.62C8.68,1.26,11,1.45,11,1.45Z"/><path d="M11.26,15.78h0C5.39,15.78.59,14,.06,11.49v2.88c0,2.65,5,4.52,11.17,4.52s11.19-2,11.19-4.62V11.6C21.79,14.08,17,15.78,11.26,15.78Z"/><path d="M11.26,11.29h0C5.39,11.29.59,9.53.06,7V9.88c0,2.65,5,4.52,11.17,4.52s11.19-2,11.19-4.62V7.1C21.79,9.58,17,11.29,11.26,11.29Z"/>
</g>
<path id="general" d="M17,10h0a7,7,0,0,0-.06-.85L20,7.35,17.29,2.64l-3.11,1.8a6.94,6.94,0,0,0-1.46-.85V0H7.29V3.58a6.93,6.93,0,0,0-1.46.85L2.72,2.63,0,7.35l3.1,1.8a6.35,6.35,0,0,0,0,1.7L0,12.64l2.72,4.71,3.13-1.81a6.93,6.93,0,0,0,1.43.84V20h5.43V16.39a6.93,6.93,0,0,0,1.44-.84l3.13,1.81L20,12.64l-3.11-1.8A7,7,0,0,0,17,10ZM13,10a3,3,0,1,1-3-3A3,3,0,0,1,13,10Z"/>
<path id="helmet" d="M20,16.28c-2.9,1.79-7.24,1.9-12.53.32A25,25,0,0,1,.55,12.48c0-.19,0-.44,0-.75,0-.06,0-.12,0-.18a10,10,0,0,1,6.1-10L6.91,0l.6.16C10.57,1.34,15,4.68,15.88,14l2.33-1S16.83,6.2,13.47,3A14.88,14.88,0,0,0,10,.63h.15c5.68-.58,10,2.82,11.56,8.25l1,4.37,0,.12A7,7,0,0,1,20,16.28Zm-5.76,3a11.63,11.63,0,0,0,6.23-1.58,7.92,7.92,0,0,0,2.75-2.84,18.15,18.15,0,0,1,1.47,2.38c.76,1.55.7,2.4-.29,2.88-6.95,3.36-9.27,4-13.1,2.13A66.73,66.73,0,0,1,.57,15.66C.26,15.41-.31,14.23.21,14a26.21,26.21,0,0,0,7,4.12,25.11,25.11,0,0,0,7,1.14Z"/>
<g id="tenants">
<path d="M29.54,21a8,8,0,0,0-2.85-5.17,8.26,8.26,0,0,1-10.18,0A8,8,0,0,0,13.66,21Z"/><circle cx="21.6" cy="9.45" r="4.4"/><path d="M14.34,15.18V1.69L4.44,0V22.5l7.2-1.23A10,10,0,0,1,14.34,15.18Z"/><rect y="2.25" width="2.7" height="18"/>
</g>
<path id="wrench" d="M22.13,5.28a.61.61,0,0,0-.72.12L17.86,8.93l-3.2-3.64,3.17-4.06a.81.81,0,0,0,.11-.79.66.66,0,0,0-.6-.43h-.19c-2,0-5.34.19-6.85,1.89l-.3.34a7.31,7.31,0,0,0-1,7.09L.82,18.5A3.44,3.44,0,0,0,.82,23l1,1.11a2.59,2.59,0,0,0,4,0L14,14.86a5.71,5.71,0,0,0,2.74.77,5.12,5.12,0,0,0,3.84-1.81l.3-.34C22.54,11.64,22.51,7.7,22.52,6A.76.76,0,0,0,22.13,5.28Z"/>
</svg>