<svg width="27pt" height="20pt">
<path fill-rule="evenodd"  fill="rgb(205, 205, 205)"
 d="M20.938,20.000 L20.938,15.018 L17.013,15.018 L17.013,20.000 L6.965,20.000 L6.965,10.523 C6.965,10.195 7.147,10.010 7.476,10.010 L26.497,10.010 C26.827,10.010 27.007,10.417 27.007,10.745 L27.007,20.003 L20.938,20.000 ZM6.383,7.955 C5.697,7.955 5.000,9.061 5.000,9.744 L5.000,20.000 L-0.012,20.002 L-0.012,0.708 C-0.012,0.317 0.307,0.000 0.699,0.000 L12.332,0.000 C12.725,0.000 13.043,0.317 13.043,0.708 L13.025,7.955 L6.383,7.955 Z"/>
</svg>