<svg xmlns="http://www.w3.org/2000/svg" viewBox="0 0 20.01 20"><defs><style>.cls-1{fill:#cdcdcd;}</style></defs><title>general</title><g id="Layer_2" data-name="Layer 2"><g id="Layer_1-2" data-name="Layer 1"><path id="general" class="cls-1" d="M17,10h0a7,7,0,0,0-.06-.85L20,7.35,17.29,2.64l-3.11,1.8a6.94,6.94,0,0,0-1.46-.85V0H7.29V3.58a6.93,6.93,0,0,0-1.46.85L2.72,2.63,0,7.35l3.1,1.8a6.35,6.35,0,0,0,0,1.7L0,12.64l2.72,4.71,3.13-1.81a6.93,6.93,0,0,0,1.43.84V20h5.43V16.39a6.93,6.93,0,0,0,1.44-.84l3.13,1.81L20,12.64l-3.11-1.8A7,7,0,0,0,17,10ZM13,10a3,3,0,1,1-3-3A3,3,0,0,1,13,10Z"/></g></g></svg>