<svg 
 xmlns="http://www.w3.org/2000/svg"
 xmlns:xlink="http://www.w3.org/1999/xlink"
 width="26pt" height="25pt">
<path fill-rule="evenodd"  fill="rgb(205, 205, 205)"
 d="M24.779,20.871 C17.831,24.227 15.505,24.843 11.674,22.996 C11.674,22.996 5.008,19.754 0.979,16.456 C0.671,16.204 0.104,15.018 0.622,14.768 C2.614,16.459 6.064,18.421 7.620,18.885 C9.667,19.496 12.154,20.025 14.621,20.025 C16.820,20.025 19.004,19.605 20.851,18.449 C22.368,17.499 23.193,16.347 23.601,15.609 C24.026,16.201 24.624,17.094 25.069,17.993 C25.834,19.538 25.765,20.395 24.779,20.871 ZM20.382,17.073 C17.480,18.862 13.145,18.973 7.847,17.392 C6.314,16.935 2.840,14.939 0.961,13.277 C0.940,13.082 0.923,12.839 0.916,12.528 C0.909,12.468 0.899,12.409 0.893,12.349 C0.461,8.074 3.027,4.138 6.993,2.356 L7.323,0.792 C7.323,0.792 7.564,0.860 7.918,0.951 C10.973,2.132 15.408,5.470 16.283,14.745 L18.617,13.788 C18.617,13.788 17.238,6.985 13.881,3.822 C12.840,2.841 11.611,2.039 10.382,1.420 C10.436,1.420 10.486,1.419 10.529,1.415 C16.209,0.840 20.481,4.232 22.090,9.667 L23.059,14.034 L23.077,14.153 C22.817,14.711 22.062,16.037 20.382,17.073 Z"/>
</svg>