<svg xmlns="http://www.w3.org/2000/svg" viewBox="0 0 25.18 23.23"><defs><style>.cls-1{fill:#cdcdcd;}</style></defs><title>helmet</title><g id="Layer_2" data-name="Layer 2"><g id="Layer_1-2" data-name="Layer 1"><path id="helmet.svg" class="cls-1" d="M20,16.28c-2.9,1.79-7.24,1.9-12.53.32A25,25,0,0,1,.55,12.48c0-.19,0-.44,0-.75,0-.06,0-.12,0-.18a10,10,0,0,1,6.1-10L6.91,0l.6.16C10.57,1.34,15,4.68,15.88,14l2.33-1S16.83,6.2,13.47,3A14.88,14.88,0,0,0,10,.63h.15c5.68-.58,10,2.82,11.56,8.25l1,4.37,0,.12A7,7,0,0,1,20,16.28Zm-5.76,3a11.63,11.63,0,0,0,6.23-1.58,7.92,7.92,0,0,0,2.75-2.84,18.15,18.15,0,0,1,1.47,2.38c.76,1.55.7,2.4-.29,2.88-6.95,3.36-9.27,4-13.1,2.13A66.73,66.73,0,0,1,.57,15.66C.26,15.41-.31,14.23.21,14a26.21,26.21,0,0,0,7,4.12,25.11,25.11,0,0,0,7,1.14Z"/></g></g></svg>