<?xml version="1.0"?>
<svg xmlns="http://www.w3.org/2000/svg" height="512px" viewBox="-19 -68 597.34031 597" width="512px"><path d="m169.675781 426.457031c-3.902343 3.90625-3.902343 10.234375 0 14.136719l14.136719 14.148438c1.875 1.878906 4.421875 2.933593 7.074219 2.933593 2.652343 0 5.199219-1.054687 7.070312-2.933593l117.925781-117.972657c2.722657-2.742187 6.785157-3.660156 10.417969-2.351562 21.816407 7.707031 46.113281 2.25 62.539063-14.046875 12.160156-12.03125 18.539062-28.722656 17.515625-45.800782l-24.585938 24.585938c-2.355469 2.351562-5.730469 3.382812-8.996093 2.738281l-35.363282-7.066406c-3.960937-.792969-7.050781-3.890625-7.839844-7.847656l-7.070312-35.34375c-.636719-3.269531.386719-6.644531 2.738281-8.996094l24.585938-24.585937c-1.214844-.082032-2.445313-.121094-3.65625-.121094-15.835938.03125-31 6.375-42.128907 17.636718-16.304687 16.414063-21.761718 40.714844-14.050781 62.527344 1.292969 3.636719.382813 7.6875-2.347656 10.417969zm0 0" fill="#FFFFFF"/><path d="m560.007812 236.792969c-.054687 66.234375-53.734374 119.914062-119.972656 119.972656h-80.980468c23.476562-3.644531 44.097656-17.589844 56.222656-38.019531 12.132812-20.425782 14.5-45.203125 6.464844-67.558594-1.128907-3.234375-3.851563-5.65625-7.199219-6.398438-3.359375-.820312-6.898438.210938-9.300781 2.699219l-33.792969 33.792969-23.59375-4.699219-4.699219-23.597656 33.796875-33.789063c2.425781-2.421874 3.445313-5.921874 2.695313-9.265624-.753907-3.351563-3.164063-6.078126-6.398438-7.230469-29.058594-10.550781-61.605469-3.25-83.378906 18.695312-20.136719 20.253907-28.015625 49.671875-20.699219 77.285157l-58.085937 58.085937h-120.972657c-44.667969.058594-82.621093-32.660156-89.140625-76.847656-6.519531-44.191407 20.363282-86.46875 63.148438-99.3125 3.789062-1.074219 6.582031-4.296875 7.097656-8.199219 7.246094-54.625 53.773438-95.472656 108.871094-95.578125 1.503906 0 3.003906.097656 4.503906.199219l2.097656.097656c3.925782.21875 7.621094-1.84375 9.5-5.296875 27.679688-52.898437 85.894532-82.382813 144.917969-73.402344 59.027344 8.984375 105.832031 54.453125 116.523437 113.195313.738282 3.945312 3.773438 7.058594 7.699219 7.898437 55.128907 12.089844 94.476563 60.832031 94.675781 117.273438zm0 0" fill="#FFFFFF"/></svg>
