<svg 
 xmlns="http://www.w3.org/2000/svg"
 xmlns:xlink="http://www.w3.org/1999/xlink"
 width="24.5pt" height="24.5pt">
<path fill-rule="evenodd"  stroke="rgb(255, 255, 255)" stroke-width="1px" stroke-linecap="butt" stroke-linejoin="miter" fill="none"
 d="M11.995,23.438 C5.707,23.438 0.591,18.307 0.591,12.000 C0.591,5.693 5.707,0.561 11.995,0.561 C18.283,0.561 23.399,5.693 23.399,12.000 C23.399,13.900 22.921,15.785 22.019,17.452 L21.996,17.494 L23.362,20.866 C23.451,21.085 23.411,21.334 23.258,21.515 C23.138,21.658 22.962,21.740 22.775,21.740 C22.728,21.740 22.681,21.735 22.637,21.725 L19.113,20.933 L19.075,20.963 C17.069,22.559 14.554,23.438 11.995,23.438 Z"/>
</svg>