<svg xmlns="http://www.w3.org/2000/svg" xmlns:xlink="http://www.w3.org/1999/xlink" preserveAspectRatio="xMidYMid" width="14" height="18.188" viewBox="0 0 14 18.188">
  <defs>
    <style>
      .cls-1, .cls-2 {
        stroke: #cdcdcd;
        fill: none;
        fill-rule: evenodd;
      }

      .cls-1 {
        stroke-width: 3px;
      }

      .cls-2 {
        stroke-width: 2px;
      }
    </style>
  </defs>
  <g>
    <path d="M8.494,5.936 C9.818,5.936 10.895,6.963 10.895,8.224 C10.895,9.487 9.846,10.538 8.521,10.538 C7.197,10.538 6.092,9.487 6.092,8.224 C6.092,6.963 7.169,5.936 8.494,5.936 " class="cls-1"/>
    <path d="M8.069,1.997 C12.169,1.997 14.004,4.929 14.004,7.835 C14.004,10.395 12.089,13.793 8.310,17.936 C8.289,17.956 8.258,17.979 8.231,17.997 C8.204,17.979 8.173,17.956 8.152,17.936 L7.837,17.592 C5.372,14.897 1.995,11.207 1.995,7.835 C1.995,4.670 4.777,1.997 8.069,1.997 " class="cls-2"/>
  </g>
</svg>
