<svg xmlns="http://www.w3.org/2000/svg" xmlns:xlink="http://www.w3.org/1999/xlink" preserveAspectRatio="xMidYMid" width="973.5" height="1235.59" viewBox="0 0 973.5 1235.59">
  <defs>
    <style>
      .cls-1 {
        stroke: #393939;
        stroke-linecap: round;
        stroke-width: 1px;
        fill: none;
        fill-rule: evenodd;
      }
    </style>
  </defs>
  <g>
    <path d="M0.992,24.502 C5.292,24.502 5.292,28.583 9.593,28.583 C13.893,28.583 13.893,24.502 18.193,24.502 C22.493,24.502 22.493,28.583 26.793,28.583 C31.094,28.583 31.094,24.502 35.394,24.502 C39.695,24.502 39.695,28.583 43.996,28.583 " class="cls-1"/>
    <path d="M14.985,11.488 L29.989,11.488 " class="cls-1"/>
    <path d="M25.474,7.201 C25.474,3.662 23.864,1.440 20.582,1.507 C17.005,1.580 15.523,4.980 15.516,8.505 C15.510,12.044 15.516,27.000 15.516,27.000 " class="cls-1"/>
    <path d="M40.490,7.963 C40.490,4.562 38.876,2.426 35.582,2.490 C31.993,2.560 30.506,5.828 30.500,9.216 C30.493,12.618 30.500,26.993 30.500,26.993 " class="cls-1"/>
  </g>
</svg>
