<svg xmlns="http://www.w3.org/2000/svg" viewBox="0 0 22.52 25"><defs><style>.cls-1{fill:#cdcdcd;}</style></defs><title>wrench</title><g id="Layer_2" data-name="Layer 2"><g id="Layer_1-2" data-name="Layer 1"><path id="wrench" class="cls-1" d="M22.13,5.28a.61.61,0,0,0-.72.12L17.86,8.93l-3.2-3.64,3.17-4.06a.81.81,0,0,0,.11-.79.66.66,0,0,0-.6-.43h-.19c-2,0-5.34.19-6.85,1.89l-.3.34a7.31,7.31,0,0,0-1,7.09L.82,18.5A3.44,3.44,0,0,0,.82,23l1,1.11a2.59,2.59,0,0,0,4,0L14,14.86a5.71,5.71,0,0,0,2.74.77,5.12,5.12,0,0,0,3.84-1.81l.3-.34C22.54,11.64,22.51,7.7,22.52,6A.76.76,0,0,0,22.13,5.28Z"/></g></g></svg>