<?xml version="1.0" encoding="UTF-8"?>
<svg width="276px" height="407px" viewBox="0 0 276 407" version="1.1" xmlns="http://www.w3.org/2000/svg" xmlns:xlink="http://www.w3.org/1999/xlink">
    <!-- Generator: Sketch 46.2 (44496) - http://www.bohemiancoding.com/sketch -->
    <title>24h Maintenance</title>
    <desc>Created with Sketch.</desc>
    <defs></defs>
    <g id="Page-1" stroke="none" stroke-width="1" fill="none" fill-rule="evenodd">
        <g id="svg-android" transform="translate(-620.000000, -391.000000)" fill-rule="nonzero" fill="#000">
            <g id="24h-Maintenance" transform="translate(475.000000, 345.000000)">
                <g id="Group-2">
                    <path d="M321.453278,270.657434 C324.738941,273.95024 365.407648,314.710343 381.836282,331.174694 C387.185328,336.578338 392.277891,344.581996 394.49403,352.794941 C397.499363,363.932613 395.169348,374.50604 385.962846,384.156277 C367.945846,403.04166 349.045517,399.893724 330.614999,380.925076 L213.438196,263.493137 C201.128013,251.232929 184.095752,244.977837 166.803949,246.363048 C141.743274,248.323367 117.937695,237.4528 97.2850413,216.330879 C80.4651084,199.128765 73.8868815,169.674975 77.0134844,137.866002 C77.3243431,135.198153 79.1688241,132.899504 81.7510664,132.006412 C84.3314993,131.113946 87.1938994,131.782288 89.1161388,133.726952 L119.533665,164.305299 C132.843364,177.632613 145.737557,180.760143 156.767027,169.716084 L170.233416,156.220418 C181.249327,145.171173 178.131008,132.258995 164.839613,118.92738 L134.097493,88.1184242 C132.144569,86.1795682 131.476127,83.3042816 132.368681,80.7123612 C133.260613,78.1222464 135.553004,76.2747809 138.265214,75.957883 C169.946095,72.8308141 199.331143,79.4222554 216.494067,96.276917 C226.592307,106.193784 232.886937,114.541302 237.891508,125.099821 L243.478185,122.451142 C238.13416,111.176451 231.409113,102.258142 220.825753,91.864869 C202.124676,73.4996815 170.985437,66.5147528 137.602847,69.8103142 C132.473564,70.4091267 128.188481,73.8625271 126.523048,78.6988395 C124.858237,83.5333464 126.104981,88.8961881 129.731581,92.4965744 L160.462458,123.294311 C171.656393,134.522119 173.894765,143.790659 165.856261,151.853488 L152.391728,165.347294 C144.352441,173.397215 135.114033,171.156408 123.912348,159.939905 L93.5060163,129.372825 C89.9181818,125.743115 84.5603249,124.492108 79.7304411,126.162566 C74.9023666,127.832399 71.4574811,132.125523 70.8664194,137.206219 C67.5725215,170.712165 74.5412127,201.914246 92.8647249,220.654103 C114.707728,242.993421 140.222768,254.644596 167.291808,252.527171 C182.787495,251.285848 198.045585,256.889377 209.068794,267.867816 L326.209919,385.263634 C346.793009,406.448096 369.6151,410.24922 390.435973,388.424823 C401.189362,377.153142 404.012999,364.339696 400.463096,351.183864 C397.939455,341.831323 392.279043,332.935214 386.221202,326.81558 C369.783981,310.342589 329.115275,269.582486 325.829506,266.289573 L321.453278,270.657434 Z" id="Path" transform="translate(235.995981, 236.050064) rotate(-315.000000) translate(-235.995981, -236.050064) "></path>
                    <path d="M327.708696,341.117904 C276.490288,341.117904 234.969565,299.591826 234.969565,248.366812 C234.969565,197.141799 276.490288,155.615721 327.708696,155.615721 C378.927103,155.615721 420.447826,197.141799 420.447826,248.366812 C420.447826,299.591826 378.927103,341.117904 327.708696,341.117904 Z M327.708696,334.934498 C375.512543,334.934498 414.265217,296.176825 414.265217,248.366812 C414.265217,200.5568 375.512543,161.799127 327.708696,161.799127 C279.904849,161.799127 241.152174,200.5568 241.152174,248.366812 C241.152174,296.176825 279.904849,334.934498 327.708696,334.934498 Z" id="Oval-2"></path>
                    <path d="M329.769565,193.746725 C329.769565,192.039224 328.385541,190.655022 326.678261,190.655022 C324.970981,190.655022 323.586957,192.039224 323.586957,193.746725 L323.586957,256.206931 L366.007103,288.945487 C367.35874,289.988638 369.29999,289.73842 370.343007,288.386609 C371.386024,287.034798 371.135838,285.093298 369.784201,284.050146 L329.769565,253.168089 L329.769565,193.746725 Z" id="Path-6"></path>
                    <path d="M234.969565,361.729258 C227.002257,361.729258 220.543478,368.18887 220.543478,376.157205 L220.543478,405.0131 C220.543478,412.981436 227.002257,419.441048 234.969565,419.441048 C242.936873,419.441048 249.395652,412.981436 249.395652,405.0131 L249.395652,376.157205 C249.395652,368.18887 242.936873,361.729258 234.969565,361.729258 Z M234.969565,355.545852 C246.351434,355.545852 255.578261,364.773869 255.578261,376.157205 L255.578261,405.0131 C255.578261,416.396437 246.351434,425.624454 234.969565,425.624454 C223.587697,425.624454 214.36087,416.396437 214.36087,405.0131 L214.36087,376.157205 C214.36087,364.773869 223.587697,355.545852 234.969565,355.545852 Z" id="Rectangle-2"></path>
                </g>
            </g>
        </g>
    </g>
</svg>