<?xml version="1.0" encoding="UTF-8"?>
<svg width="381px" height="468px" viewBox="0 0 381 468" version="1.1" xmlns="http://www.w3.org/2000/svg" xmlns:xlink="http://www.w3.org/1999/xlink">
    <!-- Generator: Sketch 46.2 (44496) - http://www.bohemiancoding.com/sketch -->
    <title>BBQ</title>
    <desc>Created with Sketch.</desc>
    <defs></defs>
    <g id="Page-1" stroke="none" stroke-width="1" fill="none" fill-rule="evenodd">
        <g id="svg-android" transform="translate(-518.000000, -369.000000)" fill-rule="nonzero" fill="#000">
            <g id="BBQ" transform="translate(518.000000, 369.000000)">
                <path d="M32.9758065,89.7017544 L32.9758065,86.6096491 L343.905914,86.6096491 L343.905914,89.7017544 C343.905914,174.528131 274.292503,243.276316 188.44086,243.276316 C102.589218,243.276316 32.9758065,174.528131 32.9758065,89.7017544 Z M39.1854288,92.7938596 C40.8524445,172.758686 107.028998,237.092105 188.44086,237.092105 C269.852723,237.092105 336.029276,172.758686 337.696292,92.7938596 L39.1854288,92.7938596 Z" id="Oval"></path>
                <path d="M252.104652,182.84946 C277.144456,163.46262 292.081676,145.229147 300.530508,117.399146 C301.026547,115.765219 300.105561,114.038097 298.473428,113.541512 C296.841294,113.044927 295.116069,113.966926 294.62003,115.600854 C286.606989,141.995381 272.4435,159.284381 248.325455,177.957558 C246.976077,179.002301 246.728192,180.944323 247.771789,182.295185 C248.815385,183.646046 250.755274,183.894204 252.104652,182.84946 Z" id="Oval-Copy"></path>
                <path d="M3.11827957,129.899123 L40.1827957,129.899123 C41.888643,129.899123 43.2715054,128.51474 43.2715054,126.807018 C43.2715054,125.099295 41.888643,123.714912 40.1827957,123.714912 L3.11827957,123.714912 C1.41243232,123.714912 0.0295698925,125.099295 0.0295698925,126.807018 C0.0295698925,128.51474 1.41243232,129.899123 3.11827957,129.899123 Z" id="Path-3"></path>
                <path d="M340.817204,129.899123 L377.88172,129.899123 C379.587568,129.899123 380.97043,128.51474 380.97043,126.807018 C380.97043,125.099295 379.587568,123.714912 377.88172,123.714912 L340.817204,123.714912 C339.111357,123.714912 337.728495,125.099295 337.728495,126.807018 C337.728495,128.51474 339.111357,129.899123 340.817204,129.899123 Z" id="Path-3-Copy"></path>
                <path d="M83.4247312,356.653509 L305.811828,356.653509 C307.517675,356.653509 308.900538,355.269126 308.900538,353.561404 C308.900538,351.853681 307.517675,350.469298 305.811828,350.469298 L83.4247312,350.469298 C81.7188839,350.469298 80.3360215,351.853681 80.3360215,353.561404 C80.3360215,355.269126 81.7188839,356.653509 83.4247312,356.653509 Z" id="Path-3-Copy-2" transform="translate(194.618280, 353.561404) rotate(-270.000000) translate(-194.618280, -353.561404) "></path>
                <path d="M-23.7662244,340.550437 C-23.7817812,340.550401 -23.7817812,340.550401 -23.8306871,334.366893 C-23.2803965,334.363396 -23.2803965,334.363396 -22.8417036,334.36096 C-21.7205333,334.354759 -21.7205333,334.354759 -19.9491812,334.345016 C-17.3706539,334.330845 -13.4916371,334.309588 -8.31212138,334.281245 C2.0468797,334.22456 17.6078678,334.139533 38.3708475,334.026163 C79.8967918,333.799423 126.318888,337.727558 209.460759,337.274079 L209.494452,343.458198 C42.2764821,344.37223 -23.576414,340.550437 -23.7662244,340.550437 Z M209.460723,337.274079 C213.578941,337.251569 213.612634,343.435736 209.494415,343.458198 C126.352555,343.911677 79.9304695,339.983542 38.4045398,340.210282 C17.6415825,340.323651 2.08061572,340.408679 -8.27835586,340.465363 C-13.4578265,340.493706 -17.3368005,340.514962 -19.9152684,340.529133 C-21.6865383,340.538876 -21.6865383,340.538876 -22.8074923,340.545075 C-23.6292127,340.549667 -23.6292127,340.549667 -23.6956409,340.550052 L-23.7526707,334.366256 C-23.596068,334.366226 44.8311631,338.173963 209.460723,337.274079 Z" id="Path-3-Copy-3" transform="translate(94.367799, 338.808063) rotate(-255.000000) translate(-94.367799, -338.808063) "></path>
                <path d="M173.81069,344.687557 C173.795134,344.687521 173.795134,344.687521 173.746228,338.504012 C174.296518,338.500516 174.296518,338.500516 174.735211,338.498079 C175.856382,338.491879 175.856382,338.491879 177.627734,338.482136 C180.206261,338.467965 184.085278,338.446708 189.264793,338.418365 C199.623795,338.36168 215.184783,338.276653 235.947762,338.163283 C277.473707,337.936543 323.895803,333.32819 407.037674,332.874711 L407.071367,339.05883 C239.853397,339.972862 174.000501,344.687557 173.81069,344.687557 Z M407.037638,332.874711 C411.155856,332.852201 411.189549,339.036368 407.07133,339.05883 C323.92947,339.512309 277.507384,344.120662 235.981455,344.347401 C215.218497,344.460771 199.657531,344.545798 189.298559,344.602483 C184.119088,344.630826 180.240114,344.652082 177.661646,344.666253 C175.890376,344.675996 175.890376,344.675996 174.769423,344.682195 C173.947702,344.686787 173.947702,344.686787 173.881274,344.687172 L173.824244,338.503376 C173.980847,338.503346 242.408078,333.774595 407.037638,332.874711 Z" id="Path-3-Copy-4" transform="translate(291.944714, 338.781103) rotate(-285.000000) translate(-291.944714, -338.781103) "></path>
                <polygon id="Path-4" points="91.6612903 356.653509 295.516129 356.653509 295.516129 350.469298 91.6612903 350.469298"></polygon>
                <path d="M134.854084,1.28653145 C126.122673,13.1289726 125.176474,22.8989533 133.036505,29.4736389 C140.536234,35.746942 140.548987,40.7555825 133.695451,52.4645343 C132.833032,53.9379367 133.327021,55.8322622 134.798805,56.6956288 C136.27059,57.5589953 138.162835,57.0644636 139.025254,55.5910612 C147.238483,41.5591361 147.217394,33.2767073 136.997397,24.7279794 C132.192571,20.7088834 132.794513,14.4935293 139.824243,4.95908258 C140.837277,3.58510213 140.545894,1.64914232 139.173423,0.634995328 C137.800951,-0.379151664 135.867117,-0.0874490053 134.854084,1.28653145 Z" id="Path-5"></path>
                <path d="M194.569138,1.28653145 C185.837727,13.1289726 184.891528,22.8989533 192.751559,29.4736389 C200.251287,35.746942 200.264041,40.7555825 193.410505,52.4645343 C192.548086,53.9379367 193.042075,55.8322622 194.513859,56.6956288 C195.985644,57.5589953 197.877889,57.0644636 198.740307,55.5910612 C206.953536,41.5591361 206.932447,33.2767073 196.71245,24.7279794 C191.907624,20.7088834 192.509567,14.4935293 199.539297,4.95908258 C200.55233,3.58510213 200.260948,1.64914232 198.888476,0.634995328 C197.516005,-0.379151664 195.582171,-0.0874490053 194.569138,1.28653145 Z" id="Path-5-Copy"></path>
                <path d="M252.225052,1.28653145 C243.493641,13.1289726 242.547442,22.8989533 250.407473,29.4736389 C257.907201,35.746942 257.919955,40.7555825 251.066419,52.4645343 C250.204,53.9379367 250.697989,55.8322622 252.169773,56.6956288 C253.641558,57.5589953 255.533803,57.0644636 256.396221,55.5910612 C264.60945,41.5591361 264.588361,33.2767073 254.368364,24.7279794 C249.563538,20.7088834 250.165481,14.4935293 257.195211,4.95908258 C258.208244,3.58510213 257.916862,1.64914232 256.54439,0.634995328 C255.171919,-0.379151664 253.238085,-0.0874490053 252.225052,1.28653145 Z" id="Path-5-Copy-2"></path>
            </g>
        </g>
    </g>
</svg>