<?xml version="1.0" encoding="UTF-8"?>
<svg width="484px" height="371px" viewBox="0 0 484 371" version="1.1" xmlns="http://www.w3.org/2000/svg" xmlns:xlink="http://www.w3.org/1999/xlink">
    <!-- Generator: Sketch 46.2 (44496) - http://www.bohemiancoding.com/sketch -->
    <title>Business Center</title>
    <desc>Created with Sketch.</desc>
    <defs></defs>
    <g id="Page-1" stroke="none" stroke-width="1" fill="none" fill-rule="evenodd">
        <g id="svg-android" transform="translate(-469.000000, -410.000000)" fill-rule="nonzero" fill="#000">
            <g id="Business-Center" transform="translate(469.000000, 410.000000)">
                <path d="M34.0084746,51.5497238 C18.6544905,51.5497238 6.20762712,64.0053599 6.20762712,79.3701657 L6.20762712,336.966851 C6.20762712,352.331657 18.6544905,364.787293 34.0084746,364.787293 L449.991525,364.787293 C465.34551,364.787293 477.792373,352.331657 477.792373,336.966851 L477.792373,79.3701657 C477.792373,64.0053599 465.34551,51.5497238 449.991525,51.5497238 L34.0084746,51.5497238 Z M34.0084746,45.3674033 L449.991525,45.3674033 C468.757506,45.3674033 483.970339,60.5909586 483.970339,79.3701657 L483.970339,336.966851 C483.970339,355.746058 468.757506,370.969613 449.991525,370.969613 L34.0084746,370.969613 C15.242494,370.969613 0.0296610169,355.746058 0.0296610169,336.966851 L0.0296610169,79.3701657 C0.0296610169,60.5909586 15.242494,45.3674033 34.0084746,45.3674033 Z" id="Rectangle-5"></path>
                <path d="M170.95339,48.4585635 L170.95339,22.9564917 C170.95339,13.6556679 177.811546,6.21270718 186.14089,6.21270718 L295.799788,6.21270718 C304.129132,6.21270718 310.987288,13.6556679 310.987288,22.9564917 L310.987288,48.4585635 L317.165254,48.4585635 L317.165254,22.9564917 C317.165254,10.3482405 307.65809,0.0303867403 295.799788,0.0303867403 L186.14089,0.0303867403 C174.282588,0.0303867403 164.775424,10.3482405 164.775424,22.9564917 L164.775424,48.4585635 L170.95339,48.4585635 Z" id="Rectangle-5-Copy"></path>
                <path d="M2.08898305,151.497238 L88.4497898,151.497238 L88.4497898,145.314917 L2.08898305,145.314917 L2.08898305,151.497238 Z M127.890633,151.497238 L352.606106,151.497238 L352.606106,145.314917 L127.890633,145.314917 L127.890633,151.497238 Z M392.338553,151.497238 L481.911017,151.497238 L481.911017,145.314917 L392.338553,145.314917 L392.338553,151.497238 Z" id="Path-5"></path>
                <path d="M104.025424,133.980663 C97.7700969,133.980663 92.6991525,139.055181 92.6991525,145.314917 L92.6991525,184.469613 C92.6991525,190.729349 97.7700969,195.803867 104.025424,195.803867 L114.322034,195.803867 C120.577361,195.803867 125.648305,190.729349 125.648305,184.469613 L125.648305,145.314917 C125.648305,139.055181 120.577361,133.980663 114.322034,133.980663 L104.025424,133.980663 Z M104.025424,127.798343 L114.322034,127.798343 C123.989357,127.798343 131.826271,135.64078 131.826271,145.314917 L131.826271,184.469613 C131.826271,194.14375 123.989357,201.986188 114.322034,201.986188 L104.025424,201.986188 C94.3581004,201.986188 86.5211864,194.14375 86.5211864,184.469613 L86.5211864,145.314917 C86.5211864,135.64078 94.3581004,127.798343 104.025424,127.798343 Z" id="Rectangle-6"></path>
                <path d="M367.618644,133.980663 C361.363317,133.980663 356.292373,139.055181 356.292373,145.314917 L356.292373,184.469613 C356.292373,190.729349 361.363317,195.803867 367.618644,195.803867 L377.915254,195.803867 C384.170581,195.803867 389.241525,190.729349 389.241525,184.469613 L389.241525,145.314917 C389.241525,139.055181 384.170581,133.980663 377.915254,133.980663 L367.618644,133.980663 Z M367.618644,127.798343 L377.915254,127.798343 C387.582578,127.798343 395.419492,135.64078 395.419492,145.314917 L395.419492,184.469613 C395.419492,194.14375 387.582578,201.986188 377.915254,201.986188 L367.618644,201.986188 C357.951321,201.986188 350.114407,194.14375 350.114407,184.469613 L350.114407,145.314917 C350.114407,135.64078 357.951321,127.798343 367.618644,127.798343 Z" id="Rectangle-6-Copy"></path>
            </g>
        </g>
    </g>
</svg>