<?xml version="1.0" encoding="UTF-8"?>
<svg width="390px" height="299px" viewBox="0 0 390 299" version="1.1" xmlns="http://www.w3.org/2000/svg" xmlns:xlink="http://www.w3.org/1999/xlink">
    <!-- Generator: Sketch 46.2 (44496) - http://www.bohemiancoding.com/sketch -->
    <title>Concierge</title>
    <desc>Created with Sketch.</desc>
    <defs></defs>
    <g id="Page-1" stroke="none" stroke-width="1" fill="none" fill-rule="evenodd">
        <g id="svg-android" transform="translate(-517.000000, -440.000000)" fill-rule="nonzero" fill="#000">
            <g id="Concierge" transform="translate(517.000000, 440.000000)">
                <g id="Group">
                    <polygon id="Rectangle-7-Copy-2" points="227.5 0.503528468 162.5 0.503528468 162.5 6.68973536 227.5 6.68973536"></polygon>
                    <path d="M195,42.632077 C92.7975909,42.632077 9.56841794,123.498327 6.29073569,224.477726 L383.709266,224.477786 C380.431598,123.498343 297.202419,42.632077 195,42.632077 Z M390,230.663994 L0,230.663994 C0,123.400286 87.3044738,36.4458701 195,36.4458701 C302.695526,36.4458701 390,123.400286 390,230.663994 Z" id="Oval-4"></path>
                    <path d="M6.19047619,292.813793 L383.809524,292.813793 L383.809524,262.026624 L6.19047619,262.026624 L6.19047619,292.813793 Z M4.12698413,255.840417 L385.873016,255.840417 C388.152286,255.840417 390,257.686856 390,259.964555 L390,294.875862 C390,297.153561 388.152286,299 385.873016,299 L4.12698413,299 C1.84771373,299 2.7913012e-16,297.153561 0,294.875862 L0,259.964555 C-2.7913012e-16,257.686856 1.84771373,255.840417 4.12698413,255.840417 Z" id="Rectangle-7-Copy"></path>
                    <path d="M183.134921,254.257899 L214.087302,254.257899 L214.087302,232.246512 L183.134921,232.246512 L183.134921,254.257899 Z M176.944444,226.060305 L220.277778,226.060305 L220.277778,260.444106 L176.944444,260.444106 L176.944444,226.060305 Z" id="Rectangle-7"></path>
                    <polygon id="Path-7" points="198.095238 36.9733761 198.095238 1.00705694 191.904762 1.00705694 191.904762 36.9733761"></polygon>
                    <path d="M334.988724,150.630448 C314.552056,109.92949 282.451702,85.3359174 238.91262,77.0465539 C237.233372,76.7268436 235.612717,77.8280276 235.292786,79.5061172 C234.972855,81.1842069 236.074799,82.8037438 237.754047,83.1234541 C279.383911,91.0493235 309.876149,114.410843 329.45572,153.404836 C330.222375,154.93168 332.082477,155.548363 333.610374,154.782237 C335.138271,154.01611 335.755379,152.157291 334.988724,150.630448 Z" id="Path-8"></path>
                </g>
            </g>
        </g>
    </g>
</svg>