<?xml version="1.0" encoding="UTF-8"?>
<svg width="382px" height="361px" viewBox="0 0 382 361" version="1.1" xmlns="http://www.w3.org/2000/svg" xmlns:xlink="http://www.w3.org/1999/xlink">
    <!-- Generator: Sketch 46.2 (44496) - http://www.bohemiancoding.com/sketch -->
    <title>Controlled Access</title>
    <desc>Created with Sketch.</desc>
    <defs></defs>
    <g id="Page-1" stroke="none" stroke-width="1" fill="none" fill-rule="evenodd">
        <g id="svg-android" transform="translate(-556.000000, -417.000000)" fill="#000">
            <g id="Controlled-Access" transform="translate(556.000000, 416.000000)">
                <g id="Group-5" transform="translate(190.814286, 181.297297) rotate(-270.000000) translate(-190.814286, -181.297297) translate(9.814286, -9.202703)">
                    <polygon id="Path" transform="translate(181.202703, 267.171429) rotate(-90.000000) translate(-181.202703, -267.171429) " points="288.294595 92.86 288.294595 194.012522 294.472973 194.012522 294.472973 86.6714286 67.9324324 86.6714286 67.9324324 447.671429 294.472973 447.671429 294.472973 368.763114 288.294595 368.763114 288.294595 441.482857 74.1108108 441.482857 74.1108108 92.86"></polygon>
                    <path d="M120.448649,6.22 C115.330312,6.22 111.181081,10.3760767 111.181081,15.5028571 L111.181081,260.982857 C111.181081,266.109638 115.330312,270.265714 120.448649,270.265714 L270.789189,270.265714 C275.907525,270.265714 280.056757,266.109638 280.056757,260.982857 L280.056757,15.5028571 C280.056757,10.3760767 275.907525,6.22 270.789189,6.22 L120.448649,6.22 Z M120.448649,0.0314285714 L270.789189,0.0314285714 C279.31975,0.0314285714 286.235135,6.95822308 286.235135,15.5028571 L286.235135,260.982857 C286.235135,269.527491 279.31975,276.454286 270.789189,276.454286 L120.448649,276.454286 C111.918088,276.454286 105.002703,269.527491 105.002703,260.982857 L105.002703,15.5028571 C105.002703,6.95822308 111.918088,0.0314285714 120.448649,0.0314285714 Z" id="Rectangle-8-Copy" fill-rule="nonzero"></path>
                    <path d="M143.333867,6.22 L143.333867,270.265714 L176.453337,270.265714 L176.453337,6.22 L143.333867,6.22 Z M182.631715,0.0314285714 L182.631715,276.454286 L137.155488,276.454286 L137.155488,0.0314285714 L182.631715,0.0314285714 Z" id="Rectangle-9" fill-rule="nonzero"></path>
                </g>
                <path d="M50.427027,200.065714 C39.6216505,200.065714 30.8621622,191.291775 30.8621622,180.468571 C30.8621622,169.645368 39.6216505,160.871429 50.427027,160.871429 C61.2324035,160.871429 69.9918919,169.645368 69.9918919,180.468571 C69.9918919,191.291775 61.2324035,200.065714 50.427027,200.065714 Z M50.427027,193.877143 C57.8201794,193.877143 63.8135135,187.873921 63.8135135,180.468571 C63.8135135,173.063222 57.8201794,167.06 50.427027,167.06 C43.0338747,167.06 37.0405405,173.063222 37.0405405,180.468571 C37.0405405,187.873921 43.0338747,193.877143 50.427027,193.877143 Z" id="Oval-5" fill-rule="nonzero"></path>
                <path d="M108.091892,80.42 C91.5994751,80.42 78.2297297,93.8118027 78.2297297,110.331429 L84.4081081,110.331429 C84.4081081,97.2296563 95.0116993,86.6085714 108.091892,86.6085714 L108.091892,80.42 Z" id="Oval-5-Copy" fill-rule="nonzero"></path>
                <path d="M108.091892,59.7914286 C80.2253946,59.7914286 57.6351351,82.4189573 57.6351351,110.331429 L63.8135135,110.331429 C63.8135135,85.8368109 83.6376188,65.98 108.091892,65.98 L108.091892,59.7914286 Z" id="Oval-5-Copy-2" fill-rule="nonzero"></path>
                <path d="M108.091892,39.1628571 C68.8513141,39.1628571 37.0405405,71.0261119 37.0405405,110.331429 L43.2189189,110.331429 C43.2189189,74.4439655 72.2635382,45.3514286 108.091892,45.3514286 L108.091892,39.1628571 Z" id="Oval-5-Copy-3" fill-rule="nonzero"></path>
            </g>
        </g>
    </g>
</svg>