<?xml version="1.0" encoding="UTF-8"?>
<svg width="373px" height="369px" viewBox="0 0 373 369" version="1.1" xmlns="http://www.w3.org/2000/svg" xmlns:xlink="http://www.w3.org/1999/xlink">
    <!-- Generator: Sketch 46.2 (44496) - http://www.bohemiancoding.com/sketch -->
    <title>Covered Parking</title>
    <desc>Created with Sketch.</desc>
    <defs></defs>
    <g id="Page-1" stroke="none" stroke-width="1" fill="none" fill-rule="evenodd">
        <g id="svg-android" transform="translate(-525.000000, -410.000000)" fill-rule="nonzero" fill="#000">
            <g id="Covered-Parking" transform="translate(525.000000, 410.000000)">
                <g id="Group-6" transform="translate(21.664835, 155.644444)">
                    <path d="M26.7857143,87.6969534 C15.4062208,87.6969534 6.18131868,96.9248622 6.18131868,108.308065 L6.18131868,156.843907 C6.18131868,168.227109 15.4062208,177.455018 26.7857143,177.455018 L304.945055,177.455018 C316.324548,177.455018 325.549451,168.227109 325.549451,156.843907 L325.549451,108.308065 C325.549451,96.9248622 316.324548,87.6969534 304.945055,87.6969534 L26.7857143,87.6969534 Z M26.7857143,81.5136201 L304.945055,81.5136201 C319.738396,81.5136201 331.730769,93.5099015 331.730769,108.308065 L331.730769,156.843907 C331.730769,171.64207 319.738396,183.638351 304.945055,183.638351 L26.7857143,183.638351 C11.9923728,183.638351 5.49011386e-15,171.64207 3.66007591e-15,156.843907 L0,108.308065 C2.74505693e-15,93.5099015 11.9923728,81.5136201 26.7857143,81.5136201 Z" id="Rectangle-10-Copy"></path>
                    <path d="M55.4029304,82.8433692 C55.4029304,40.755268 80.0836116,6.94793907 109.975962,6.94793907 L225.303342,6.94793907 C255.195692,6.94793907 279.876374,40.755268 279.876374,82.8433692 L286.057692,82.8433692 C286.057692,37.6847323 259.104546,0.764605735 225.303342,0.764605735 L109.975962,0.764605735 C76.1747577,0.764605735 49.2216117,37.6847323 49.2216117,82.8433692 L55.4029304,82.8433692 Z" id="Rectangle-10-Copy-2"></path>
                    <path d="M259.901557,159.004749 C247.4078,159.004749 237.293956,148.771804 237.293956,136.166308 C237.293956,123.560813 247.4078,113.327867 259.901557,113.327867 C272.395313,113.327867 282.509158,123.560813 282.509158,136.166308 C282.509158,148.771804 272.395313,159.004749 259.901557,159.004749 Z M259.901557,152.821416 C268.965618,152.821416 276.327839,145.372497 276.327839,136.166308 C276.327839,126.960119 268.965618,119.511201 259.901557,119.511201 C250.837495,119.511201 243.475275,126.960119 243.475275,136.166308 C243.475275,145.372497 250.837495,152.821416 259.901557,152.821416 Z" id="Oval-6-Copy"></path>
                    <path d="M71.8292125,159.004749 C59.3354557,159.004749 49.2216117,148.771804 49.2216117,136.166308 C49.2216117,123.560813 59.3354557,113.327867 71.8292125,113.327867 C84.3229692,113.327867 94.4368132,123.560813 94.4368132,136.166308 C94.4368132,148.771804 84.3229692,159.004749 71.8292125,159.004749 Z M71.8292125,152.821416 C80.8932739,152.821416 88.2554945,145.372497 88.2554945,136.166308 C88.2554945,126.960119 80.8932739,119.511201 71.8292125,119.511201 C62.765151,119.511201 55.4029304,126.960119 55.4029304,136.166308 C55.4029304,145.372497 62.765151,152.821416 71.8292125,152.821416 Z" id="Oval-6-Copy-2"></path>
                    <path d="M74.0613553,183.571864 L74.0613553,209.853051 C74.0613553,211.560532 75.4450906,212.944718 77.1520147,212.944718 C78.8589387,212.944718 80.242674,211.560532 80.242674,209.853051 L80.242674,183.571864 C80.242674,181.864383 78.8589387,180.480197 77.1520147,180.480197 C75.4450906,180.480197 74.0613553,181.864383 74.0613553,183.571864 Z" id="Path-9"></path>
                    <path d="M258.585165,183.571864 L258.585165,209.853051 C258.585165,211.560532 259.9689,212.944718 261.675824,212.944718 C263.382748,212.944718 264.766484,211.560532 264.766484,209.853051 L264.766484,183.571864 C264.766484,181.864383 263.382748,180.480197 261.675824,180.480197 C259.9689,180.480197 258.585165,181.864383 258.585165,183.571864 Z" id="Path-9-Copy"></path>
                </g>
                <path d="M186.5,6.77498368 L368.233156,121.161205 C369.677882,122.070543 371.585988,121.636143 372.495029,120.190946 C373.40407,118.745749 372.969812,116.837021 371.525086,115.927684 L188.145965,0.505461482 C187.139944,-0.12774642 185.860056,-0.12774642 184.854035,0.505461482 L1.47491444,115.927684 C0.0301882661,116.837021 -0.404070218,118.745749 0.504970973,120.190946 C1.41401216,121.636143 3.32211762,122.070543 4.7668438,121.161205 L186.5,6.77498368 Z" id="Triangle"></path>
            </g>
        </g>
    </g>
</svg>