<?xml version="1.0" encoding="UTF-8"?>
<svg width="480px" height="227px" viewBox="0 0 480 227" version="1.1" xmlns="http://www.w3.org/2000/svg" xmlns:xlink="http://www.w3.org/1999/xlink">
    <!-- Generator: Sketch 46.2 (44496) - http://www.bohemiancoding.com/sketch -->
    <title>Fitness Center</title>
    <desc>Created with Sketch.</desc>
    <defs></defs>
    <g id="Page-1" stroke="none" stroke-width="1" fill="none" fill-rule="evenodd">
        <g id="svg-android" transform="translate(-471.000000, -482.000000)" fill-rule="nonzero" fill="#000">
            <g id="Fitness-Center" transform="translate(471.000000, 482.000000)">
                <path d="M129.799145,94.9324324 L129.799145,132.892793 L351.726654,132.892793 L351.726654,94.9324324 L129.799145,94.9324324 Z M357.906141,88.7432432 L357.906141,139.081982 L123.619658,139.081982 L123.619658,88.7432432 L357.906141,88.7432432 Z" id="Rectangle-11"></path>
                <path d="M103.326527,6.22072072 C92.9194827,6.22072072 84.482906,14.6705431 84.482906,25.0939273 L84.482906,201.906073 C84.482906,212.329457 92.9194827,220.779279 103.326527,220.779279 C113.733572,220.779279 122.170149,212.329457 122.170149,201.906073 L122.170149,25.0939273 C122.170149,14.6705431 113.733572,6.22072072 103.326527,6.22072072 Z M103.326527,0.0315315315 C117.146409,0.0315315315 128.349636,11.2523483 128.349636,25.0939273 L128.349636,201.906073 C128.349636,215.747652 117.146409,226.968468 103.326527,226.968468 C89.5066461,226.968468 78.3034188,215.747652 78.3034188,201.906073 L78.3034188,25.0939273 C78.3034188,11.2523483 89.5066461,0.0315315315 103.326527,0.0315315315 Z" id="Rectangle-12"></path>
                <path d="M60.0701171,26.8513514 C49.6630724,26.8513514 41.2264957,35.3011737 41.2264957,45.7245579 L41.2264957,182.802109 C41.2264957,193.225493 49.6630724,201.675315 60.0701171,201.675315 C70.4771619,201.675315 78.9137385,193.225493 78.9137385,182.802109 L78.9137385,45.7245579 C78.9137385,35.3011737 70.4771619,26.8513514 60.0701171,26.8513514 Z M60.0701171,20.6621622 C73.8899984,20.6621622 85.0932257,31.8829789 85.0932257,45.7245579 L85.0932257,182.802109 C85.0932257,196.643688 73.8899984,207.864505 60.0701171,207.864505 C46.2502359,207.864505 35.0470085,196.643688 35.0470085,182.802109 L35.0470085,45.7245579 C35.0470085,31.8829789 46.2502359,20.6621622 60.0701171,20.6621622 Z" id="Rectangle-12-Copy"></path>
                <path d="M35.1232985,94.9324324 L12.3888889,94.9324324 C8.97605236,94.9324324 6.20940171,97.7034268 6.20940171,101.121622 L6.20940171,126.703604 C6.20940171,130.121798 8.97605236,132.892793 12.3888889,132.892793 L35.1232985,132.892793 L35.1232985,94.9324324 Z M12.3888889,88.7432432 L41.3027857,88.7432432 L41.3027857,139.081982 L12.3888889,139.081982 C5.56321583,139.081982 0.0299145299,133.539993 0.0299145299,126.703604 L0.0299145299,101.121622 C0.0299145299,94.285232 5.56321583,88.7432432 12.3888889,88.7432432 Z" id="Rectangle-12-Copy-2"></path>
                <path d="M376.673473,6.22072072 C366.266428,6.22072072 357.829851,14.6705431 357.829851,25.0939273 L357.829851,201.906073 C357.829851,212.329457 366.266428,220.779279 376.673473,220.779279 C387.080517,220.779279 395.517094,212.329457 395.517094,201.906073 L395.517094,25.0939273 C395.517094,14.6705431 387.080517,6.22072072 376.673473,6.22072072 Z M376.673473,0.0315315315 C390.493354,0.0315315315 401.696581,11.2523483 401.696581,25.0939273 L401.696581,201.906073 C401.696581,215.747652 390.493354,226.968468 376.673473,226.968468 C362.853591,226.968468 351.650364,215.747652 351.650364,201.906073 L351.650364,25.0939273 C351.650364,11.2523483 362.853591,0.0315315315 376.673473,0.0315315315 Z" id="Rectangle-12-Copy-3" transform="translate(376.673473, 113.500000) rotate(-180.000000) translate(-376.673473, -113.500000) "></path>
                <path d="M419.929883,25.3246847 C409.522838,25.3246847 401.086261,33.7745071 401.086261,44.1978912 L401.086261,181.275442 C401.086261,191.698826 409.522838,200.148649 419.929883,200.148649 C430.336928,200.148649 438.773504,191.698826 438.773504,181.275442 L438.773504,44.1978912 C438.773504,33.7745071 430.336928,25.3246847 419.929883,25.3246847 Z M419.929883,19.1354955 C433.749764,19.1354955 444.952991,30.3563123 444.952991,44.1978912 L444.952991,181.275442 C444.952991,195.117021 433.749764,206.337838 419.929883,206.337838 C406.110002,206.337838 394.906774,195.117021 394.906774,181.275442 L394.906774,44.1978912 C394.906774,30.3563123 406.110002,19.1354955 419.929883,19.1354955 Z" id="Rectangle-12-Copy-4" transform="translate(419.929883, 112.736667) rotate(-180.000000) translate(-419.929883, -112.736667) "></path>
                <path d="M473.790598,94.1072072 L451.056189,94.1072072 C447.643352,94.1072072 444.876701,96.8782016 444.876701,100.296396 L444.876701,125.878378 C444.876701,129.296573 447.643352,132.067568 451.056189,132.067568 L473.790598,132.067568 L473.790598,94.1072072 Z M451.056189,87.918018 L479.970085,87.918018 L479.970085,138.256757 L451.056189,138.256757 C444.230516,138.256757 438.697214,132.714768 438.697214,125.878378 L438.697214,100.296396 C438.697214,93.4600068 444.230516,87.918018 451.056189,87.918018 Z" id="Rectangle-12-Copy-5" transform="translate(459.333650, 113.087387) rotate(-180.000000) translate(-459.333650, -113.087387) "></path>
            </g>
        </g>
    </g>
</svg>