<?xml version="1.0" encoding="UTF-8"?>
<svg width="466px" height="367px" viewBox="0 0 466 367" version="1.1" xmlns="http://www.w3.org/2000/svg" xmlns:xlink="http://www.w3.org/1999/xlink">
    <!-- Generator: Sketch 46.2 (44496) - http://www.bohemiancoding.com/sketch -->
    <title>Garage</title>
    <desc>Created with Sketch.</desc>
    <defs></defs>
    <g id="Page-1" stroke="none" stroke-width="1" fill="none" fill-rule="evenodd">
        <g id="svg-android" transform="translate(-478.000000, -421.000000)" fill-rule="nonzero" fill="#000">
            <g id="Garage" transform="translate(478.000000, 421.000000)">
                <g id="Group-8">
                    <g id="Group-3" transform="translate(64.275098, 163.080661)">
                        <path d="M6.18584071,6.18435754 L6.18584071,197.673529 L331.263964,197.673529 L331.263964,6.18435754 L6.18584071,6.18435754 Z M337.449805,0 L337.449805,203.857886 L0,203.857886 L0,0 L337.449805,0 Z" id="Rectangle-4"></path>
                    </g>
                    <path d="M6.18584071,6.18435754 L6.18584071,360.75419 L459.814159,360.75419 L459.814159,6.18435754 L6.18584071,6.18435754 Z M466,0 L466,366.938547 L0,366.938547 L0,0 L466,0 Z" id="Rectangle-13"></path>
                    <path d="M234.008802,113.32341 C218.647662,113.32341 206.19469,100.876483 206.19469,85.5220403 C206.19469,70.1675975 218.647662,57.7206704 234.008802,57.7206704 C249.369942,57.7206704 261.822914,70.1675975 261.822914,85.5220403 C261.822914,100.876483 249.369942,113.32341 234.008802,113.32341 Z M234.008802,107.139053 C245.953936,107.139053 255.637073,97.4606164 255.637073,85.5220403 C255.637073,73.5834641 245.953936,63.9050279 234.008802,63.9050279 C222.063668,63.9050279 212.380531,73.5834641 212.380531,85.5220403 C212.380531,97.4606164 222.063668,107.139053 234.008802,107.139053 Z" id="Oval-6"></path>
                    <polygon id="Path-10" points="68.0442478 218.513966 395.982401 218.513966 395.982401 212.329609 68.0442478 212.329609"></polygon>
                    <polygon id="Path-10-Copy" points="68.0442478 267.988827 395.982401 267.988827 395.982401 261.804469 68.0442478 261.804469"></polygon>
                    <polygon id="Path-10-Copy-2" points="68.0442478 317.463687 395.982401 317.463687 395.982401 311.27933 68.0442478 311.27933"></polygon>
                </g>
            </g>
        </g>
    </g>
</svg>