<?xml version="1.0" encoding="UTF-8"?>
<svg width="241px" height="373px" viewBox="0 0 241 373" version="1.1" xmlns="http://www.w3.org/2000/svg" xmlns:xlink="http://www.w3.org/1999/xlink">
    <!-- Generator: Sketch 46.2 (44496) - http://www.bohemiancoding.com/sketch -->
    <title>High Speed Wifi</title>
    <desc>Created with Sketch.</desc>
    <defs></defs>
    <g id="Page-1" stroke="none" stroke-width="1" fill="none" fill-rule="evenodd">
        <g id="svg-android" transform="translate(-593.000000, -402.000000)" fill-rule="nonzero" fill="#000">
            <g id="High-Speed-Wifi" transform="translate(593.000000, 402.000000)">
                <path d="M134.626157,200.524017 C172.202484,193.342317 199.783898,160.325105 199.783898,121.596154 C199.783898,77.2161293 163.826293,41.239011 119.470339,41.239011 C75.114385,41.239011 39.1567797,77.2161293 39.1567797,121.596154 C39.1567797,160.727173 67.3046654,193.981002 105.388892,200.721754 L106.465065,194.634941 C71.3194996,188.41432 45.3347458,157.716008 45.3347458,121.596154 C45.3347458,80.6299774 78.5263814,47.4203297 119.470339,47.4203297 C160.414297,47.4203297 193.605932,80.6299774 193.605932,121.596154 C193.605932,157.34495 168.144063,187.824893 133.467004,194.452476 L134.626157,200.524017 Z" id="Oval-7-Copy"></path>
                <path d="M137.50053,239.910392 C196.545801,231.564041 240.970339,180.802202 240.970339,120.565934 C240.970339,53.9958973 187.033931,0.0302197802 120.5,0.0302197802 C53.966069,0.0302197802 0.0296610169,53.9958973 0.0296610169,120.565934 C0.0296610169,179.775296 42.9806433,229.954203 100.74867,239.489026 L101.754222,233.390135 C46.9580857,224.345833 6.20762712,176.737761 6.20762712,120.565934 C6.20762712,57.4097453 57.3780654,6.21153846 120.5,6.21153846 C183.621935,6.21153846 234.792373,57.4097453 234.792373,120.565934 C234.792373,177.711934 192.644028,225.872875 136.636299,233.789853 L137.50053,239.910392 Z" id="Oval-7-Copy-2"></path>
                <polygon id="Rectangle-14" points="97.0456848 366.788462 112.420478 150.854913 106.25813 150.415668 90.4119423 372.96978 148.528339 372.96978 132.807766 151.807255 126.645366 152.245764 141.89539 366.788462"></polygon>
                <path d="M120.5,156.623626 C100.596687,156.623626 84.4618644,140.480048 84.4618644,120.565934 C84.4618644,100.65182 100.596687,84.5082418 120.5,84.5082418 C140.403313,84.5082418 156.538136,100.65182 156.538136,120.565934 C156.538136,140.480048 140.403313,156.623626 120.5,156.623626 Z M120.5,150.442308 C136.991316,150.442308 150.360169,137.0662 150.360169,120.565934 C150.360169,104.065669 136.991316,90.6895604 120.5,90.6895604 C104.008684,90.6895604 90.6398305,104.065669 90.6398305,120.565934 C90.6398305,137.0662 104.008684,150.442308 120.5,150.442308 Z" id="Oval-7"></path>
            </g>
        </g>
    </g>
</svg>