<?xml version="1.0" encoding="UTF-8"?>
<svg width="495px" height="431px" viewBox="0 0 495 431" version="1.1" xmlns="http://www.w3.org/2000/svg" xmlns:xlink="http://www.w3.org/1999/xlink">
    <!-- Generator: Sketch 46.2 (44496) - http://www.bohemiancoding.com/sketch -->
    <title>Onsite  Maintenance</title>
    <desc>Created with Sketch.</desc>
    <defs></defs>
    <g id="Page-1" stroke="none" stroke-width="1" fill="none" fill-rule="evenodd">
        <g id="svg-android" transform="translate(-478.000000, -382.000000)" fill="#000">
            <g id="Onsite--Maintenance" transform="translate(478.000000, 382.000000)">
                <path d="M339.841751,423.891988 C338.559465,423.891988 337.891994,424.658631 337.891994,425.211212 L337.891994,423.891988 L339.841751,423.891988 Z M53.625,425.211212 C53.625,424.658631 52.9575291,423.891988 51.6752428,423.891988 L53.625,423.891988 L53.625,425.211212 Z M337.891994,288.708134 L344.079494,288.708134 L344.079494,425.211212 C344.079494,427.899391 342.182192,430.078591 339.841751,430.078591 L51.6752428,430.078591 C49.3348021,430.078591 47.4375,427.899391 47.4375,425.211212 L47.4375,160.851675 L53.625,160.851675 L53.625,423.891988 L337.891994,423.891988 L337.891994,288.708134 Z M53.625,425.211212 C53.625,424.658631 52.9575291,423.891988 51.6752428,423.891988 L53.625,423.891988 L53.625,425.211212 Z M337.891994,423.891988 L339.841751,423.891988 C338.559465,423.891988 337.891994,424.658631 337.891994,425.211212 L337.891994,423.891988 Z M337.891994,423.891988 L337.891994,288.708134 L344.079494,288.708134 L344.079494,425.211212 C344.079494,427.899391 342.182192,430.078591 339.841751,430.078591 L51.6752428,430.078591 C49.3348021,430.078591 47.4375,427.899391 47.4375,425.211212 L47.4375,160.851675 L53.625,160.851675 L53.625,423.891988 L337.891994,423.891988 Z" id="Rectangle-3" fill-rule="nonzero"></path>
                <path d="M195.322284,188.493943 C212.068786,188.493943 225.644568,174.919812 225.644568,158.175201 C225.644568,141.43059 212.068786,127.856459 195.322284,127.856459 C178.575781,127.856459 165,141.43059 165,158.175201 C165,174.919812 178.575781,188.493943 195.322284,188.493943 Z M195.322284,194.680546 C175.158487,194.680546 158.8125,178.336546 158.8125,158.175201 C158.8125,138.013856 175.158487,121.669856 195.322284,121.669856 C215.486081,121.669856 231.832068,138.013856 231.832068,158.175201 C231.832068,178.336546 215.486081,194.680546 195.322284,194.680546 Z" id="Oval-3" fill-rule="nonzero"></path>
                <path d="M246.093075,424.111371 L246.093075,272.210526 L144.375,272.210526 L144.375,424.111371 L246.093075,424.111371 Z M144.375,266.023923 L246.093075,266.023923 C249.510337,266.023923 252.280575,268.79376 252.280575,272.210526 L252.280575,430.297974 L138.1875,430.297974 L138.1875,272.210526 C138.1875,268.79376 140.957738,266.023923 144.375,266.023923 Z" id="Rectangle-4" fill-rule="nonzero"></path>
                <path d="M384.164619,302.792528 C323.224819,302.792528 273.823379,253.397095 273.823379,192.464777 C273.823379,131.532458 323.224819,82.1370253 384.164619,82.1370253 C445.10442,82.1370253 494.505859,131.532458 494.505859,192.464777 C494.505859,253.397095 445.10442,302.792528 384.164619,302.792528 Z M384.164619,296.605925 C441.687125,296.605925 488.318359,249.980361 488.318359,192.464777 C488.318359,134.949192 441.687125,88.3236282 384.164619,88.3236282 C326.642113,88.3236282 280.010879,134.949192 280.010879,192.464777 C280.010879,249.980361 326.642113,296.605925 384.164619,296.605925 Z" id="Oval-2" fill-rule="nonzero"></path>
                <path d="M424.838367,218.329769 C427.021769,220.526378 431.934762,227.449979 425.961813,233.685079 C419.988864,239.92018 414.070233,237.129753 409.869981,232.82463 L378.346875,201.362839 C375.208426,198.249984 370.863953,196.661035 366.45337,197.012906 C358.957228,197.596868 352.347997,194.078147 347.085525,188.718223 C341.823053,183.358299 339.208821,175.947723 339.94592,168.479553 C340.06806,167.43397 340.779712,166.550732 341.776726,166.207323 C342.773739,165.863914 343.879726,166.12109 344.621999,166.868936 L352.805138,175.061522 C355.648028,177.896473 362.495054,185.010479 367.782743,179.737557 L371.406136,176.121211 C376.962397,170.571043 369.561464,164.010099 366.720988,161.172738 L358.448903,152.916743 C357.699599,152.175913 357.441922,151.072078 357.786,150.077003 C358.130078,149.081929 359.015038,148.371661 360.062658,148.249759 C367.545383,147.514093 374.970401,150.123241 380.340771,155.375477 C385.71114,160.627713 389.236718,167.224088 388.651618,174.70565 C388.302381,179.109603 389.899174,183.445914 393.022736,186.576022 L424.838367,218.329769 Z" id="Path" transform="translate(384.320012, 192.724487) rotate(-315.000000) translate(-384.320012, -192.724487) "></path>
                <polygon id="Path-2" fill-rule="nonzero" points="301.675238 124.572519 306.186212 120.338011 193.856414 0.709044122 0.591385842 209.939442 5.13688564 214.136879 193.893586 9.78723653"></polygon>
            </g>
        </g>
    </g>
</svg>