<?xml version="1.0" encoding="UTF-8"?>
<svg width="92px" height="18px" viewBox="0 0 92 18" version="1.1" xmlns="http://www.w3.org/2000/svg" xmlns:xlink="http://www.w3.org/1999/xlink">
    <!-- Generator: Sketch 47.1 (45422) - http://www.bohemiancoding.com/sketch -->
    <title>Group 11</title>
    <desc>Created with Sketch.</desc>
    <defs></defs>
    <g id="Page-1" stroke="none" stroke-width="1" fill="none" fill-rule="evenodd">
        <g id="Community-Amenities" transform="translate(-330.000000, -1320.000000)" fill-rule="nonzero" fill="#000">
            <g id="bg-copy-2" transform="translate(0.000000, 1230.000000)">
                <g id="Group-11" transform="translate(330.000000, 90.000000)">
                    <path d="M9,15 C12.3137085,15 15,12.3137085 15,9 C15,5.6862915 12.3137085,3 9,3 C5.6862915,3 3,5.6862915 3,9 C3,12.3137085 5.6862915,15 9,15 Z M9,18 C4.02943725,18 0,13.9705627 0,9 C0,4.02943725 4.02943725,0 9,0 C13.9705627,0 18,4.02943725 18,9 C18,13.9705627 13.9705627,18 9,18 Z" id="Oval-3"></path>
                    <path d="M46,15 C49.3137085,15 52,12.3137085 52,9 C52,5.6862915 49.3137085,3 46,3 C42.6862915,3 40,5.6862915 40,9 C40,12.3137085 42.6862915,15 46,15 Z M46,18 C41.0294373,18 37,13.9705627 37,9 C37,4.02943725 41.0294373,0 46,0 C50.9705627,0 55,4.02943725 55,9 C55,13.9705627 50.9705627,18 46,18 Z" id="Oval-3-Copy"></path>
                    <path d="M83,15 C86.3137085,15 89,12.3137085 89,9 C89,5.6862915 86.3137085,3 83,3 C79.6862915,3 77,5.6862915 77,9 C77,12.3137085 79.6862915,15 83,15 Z M83,18 C78.0294373,18 74,13.9705627 74,9 C74,4.02943725 78.0294373,0 83,0 C87.9705627,0 92,4.02943725 92,9 C92,13.9705627 87.9705627,18 83,18 Z" id="Oval-3-Copy-2"></path>
                </g>
            </g>
        </g>
    </g>
</svg>