<?xml version="1.0" encoding="UTF-8"?>
<svg width="344px" height="293px" viewBox="0 0 344 293" version="1.1" xmlns="http://www.w3.org/2000/svg" xmlns:xlink="http://www.w3.org/1999/xlink">
    <!-- Generator: Sketch 46.2 (44496) - http://www.bohemiancoding.com/sketch -->
    <title>Pets Friendly</title>
    <desc>Created with Sketch.</desc>
    <defs></defs>
    <g id="Page-1" stroke="none" stroke-width="1" fill="none" fill-rule="evenodd">
        <g id="svg-android" transform="translate(-536.000000, -456.000000)" fill="#000">
            <g id="Pets-Friendly" transform="translate(536.000000, 456.000000)">
                <path d="M178.830255,283.801769 C178.133919,287.431529 175.714558,290.496998 172.352246,292.003501 C170.891703,292.661317 169.310577,293 167.724946,293 C165.691675,293 163.687278,292.447863 161.901858,291.388319 L5.4896222,197.382109 C2.75776831,195.740046 0.845757695,193.022437 0.217145699,189.886843 C-0.402907168,186.767597 0.317418225,183.523259 2.21824168,180.934186 C2.07169264,181.130435 4.60918549,177.692024 6.64371505,174.944018 C10.1394071,170.222444 14.0568173,164.951653 18.3575909,159.190579 C32.6883637,139.957569 40.2297336,129.990288 57.2151952,107.916236 C64.193552,98.8451826 70.7329544,90.1106373 78.1541225,80.0106276 C80.6859623,76.5648619 92.017021,61.0441033 94.865226,57.1849589 C106.770248,41.0543792 114.066651,32.0933511 121.536699,24.9108111 C129.527773,17.2272985 137.397217,12.1185703 146.557991,8.8359974 C144.821605,9.458195 152.081958,6.12961712 156.79554,4.55281209 C176.706852,-2.10799447 199.925148,-2.11060731 225.407692,8.91846598 C258.144456,25.8396518 296.093043,56.5467591 339.552131,101.148002 L340.128053,101.934233 C340.330074,102.311162 340.592746,102.682511 341.0334,103.224948 C341.092892,103.298182 341.63344,103.95263 341.80194,104.163206 C343.082708,105.763795 343.789319,107.124145 343.972308,108.990475 C342.761039,128.40846 318.453428,140.998116 278.88627,148.865767 C252.512555,154.109994 219.253793,156.740187 201.655949,155.980812 L178.830255,283.801769 Z M336.357932,108.520671 C336.23042,108.361318 335.712892,107.734741 335.621685,107.622466 C335.057747,106.928269 334.626474,106.338068 334.243738,105.692321 C291.441893,61.8051089 254.176487,31.6629375 222.528589,15.2711641 C198.774947,5.01891875 177.34878,5.03076848 159.007316,11.1664237 C156.463398,12.0174247 154.210564,12.9200162 152.156382,13.8617755 C151.253904,14.2755253 149.195036,15.2988953 148.909788,15.4011082 C140.725941,18.3336198 133.682945,22.9058299 126.369146,29.9381347 C119.264064,36.7697549 112.158006,45.4970118 100.475185,61.3265229 C97.6401363,65.1678418 86.3150994,80.680352 83.7728552,84.1402779 C76.3235061,94.278641 69.7544755,103.05276 62.7412522,112.169136 C45.7780807,134.21422 38.2583731,144.152871 23.9467071,163.360235 C19.6497594,169.116187 15.7378218,174.379614 12.2474413,179.094014 C10.2238142,181.827294 7.67221086,185.284826 7.82178929,185.084326 C7.09571935,186.073366 6.81745027,187.326687 7.05493845,188.521422 C7.29709315,189.72931 8.03215974,190.774087 9.08130007,191.404704 L165.476607,285.400804 C166.170492,285.81256 166.946236,286.026248 167.724946,286.026248 C168.324811,286.026248 168.929937,285.896628 169.49532,285.641991 C170.784118,285.064535 171.714127,283.886161 171.974263,282.531681 L195.890842,148.60024 L199.035481,148.841886 C214.872906,150.058891 250.075597,147.484324 277.526598,142.025886 C313.649496,134.843102 335.702399,123.525335 336.993365,109.489897 C336.922879,109.280891 336.74997,109.010605 336.357932,108.520671 Z" id="Shape" fill-rule="nonzero"></path>
                <path d="M328.718576,90.7887324 C305.936956,102.482613 302.590965,117.381833 320.175476,132.056338 L324.32017,126.513264 C310.992611,115.391242 312.934503,106.744278 331.640719,97.142316 L328.718576,90.7887324 Z" id="Path-11" fill-rule="nonzero"></path>
                <ellipse id="Oval-8" cx="214.227545" cy="57.7746479" rx="12.3592814" ry="12.3802817"></ellipse>
                <polygon id="Path-12" fill-rule="nonzero" points="16.4790419 160.613229 173.448496 259.985915 177.149701 254.126208 20.1802469 154.753521"></polygon>
                <path d="M170.670981,4.68425536 C176.156422,71.4515546 166.650599,103.366866 144.105979,102.415098 C128.880399,101.772318 120.589268,90.1938414 118.65666,70.7559933 C117.112566,55.225751 120.378214,35.9491327 124.88783,28.2954513 L118.802456,27.1317498 C113.486364,36.1541745 109.978415,54.5544289 111.656233,71.4296444 C113.889812,93.8946076 124.35382,108.507485 143.804419,109.328633 C172.848733,110.554799 183.490423,74.8258727 177.681953,4.12676056 L170.670981,4.68425536 Z" id="Path-13" fill-rule="nonzero"></path>
            </g>
        </g>
    </g>
</svg>