<?xml version="1.0" encoding="UTF-8"?>
<svg width="407px" height="297px" viewBox="0 0 407 297" version="1.1" xmlns="http://www.w3.org/2000/svg" xmlns:xlink="http://www.w3.org/1999/xlink">
    <!-- Generator: Sketch 46.2 (44496) - http://www.bohemiancoding.com/sketch -->
    <title>Pool</title>
    <desc>Created with Sketch.</desc>
    <defs></defs>
    <g id="Page-1" stroke="none" stroke-width="1" fill="none" fill-rule="evenodd">
        <g id="svg-android" transform="translate(-508.000000, -435.000000)" fill-rule="nonzero" fill="#000">
            <g id="Pool" transform="translate(508.000000, 435.000000)">
                <path d="M1.37585477,256.29773 C17.4037207,254.653276 29.8781346,259.82938 39.1891565,271.944077 C43.1418749,277.774852 47.6507134,282.548914 52.5539906,286.226783 C63.0287772,294.083751 72.3175081,296.015925 85.2254445,295.86449 C86.1701986,295.853407 86.3814917,295.851374 86.7470763,295.851374 C101.434985,296.074801 110.395684,290.643007 124.735362,276.351966 C125.248148,275.840919 126.993579,274.095247 127.23185,273.857396 C142.023327,259.091989 150.890996,253.730397 166.191738,253.665489 C181.833225,253.799595 191.996595,259.571762 208.404542,274.510981 C208.801596,274.872494 209.208561,275.243942 209.741043,275.730623 C210.408752,276.341072 210.783841,276.683999 211.076435,276.951292 C212.167942,277.948413 212.964569,278.672597 213.752255,279.381978 C227.933782,292.15369 237.497946,297.388505 250.914969,296.94712 C264.642431,296.495523 272.930748,291.174978 286.013859,277.650135 C286.505743,277.141642 288.249365,275.332116 288.594559,274.974869 C302.810337,260.262764 311.737102,254.864515 327.692063,254.864515 C343.275463,254.864515 351.041327,259.779023 365.326778,274.935842 L365.556318,275.179388 C373.030755,283.109742 376.709891,286.546817 382.116394,289.982281 C389.343169,294.574405 397.340925,296.948791 407,296.948791 L407,290.762584 C391.792714,290.762584 384.185084,285.928453 370.053421,270.934804 L369.82388,270.691257 C362.281388,262.688696 358.552632,259.210326 353.057551,255.732848 C345.711189,251.083815 337.55728,248.678308 327.692063,248.678308 C309.660957,248.678308 299.421862,254.870158 284.150533,270.674667 C283.800878,271.036531 282.058868,272.844384 281.572221,273.347462 C269.51261,285.814249 262.400533,290.379727 250.711857,290.764254 C239.318424,291.139068 230.981548,286.575991 217.887544,274.78369 C217.112836,274.085997 216.325861,273.370588 215.244236,272.382494 C214.95272,272.116185 214.578779,271.774308 213.909989,271.162872 C213.374849,270.673761 212.965226,270.299886 212.56476,269.935267 C195.125724,254.057255 183.809027,247.63007 166.205066,247.479423 C148.81385,247.552946 138.709235,253.662424 122.866055,269.47768 C122.624157,269.719151 120.881225,271.462324 120.373142,271.968683 C107.11759,285.179276 99.4008796,289.856989 86.7939803,289.665524 C86.3465928,289.665167 86.1278809,289.667271 85.1529765,289.678709 C73.4823062,289.815627 65.4057804,288.135608 56.2616621,281.276752 C51.9136182,278.015355 47.8767703,273.741047 44.1957727,268.319951 C33.4523072,254.332717 18.8743128,248.283758 0.745357352,250.143783 L1.37585477,256.29773 Z" id="Path-15"></path>
                <path d="M113.363636,283.565517 L113.363636,59.1996125 C113.363636,29.9460577 137.342621,6.21724138 166.939394,6.21724138 C196.536167,6.21724138 220.515152,29.9460577 220.515152,59.1996125 C220.515152,60.9078863 221.898999,62.2927159 223.606061,62.2927159 C225.313123,62.2927159 226.69697,60.9078863 226.69697,59.1996125 C226.69697,26.5139084 199.934892,0.0310344828 166.939394,0.0310344828 C133.943896,0.0310344828 107.181818,26.5139084 107.181818,59.1996125 L107.181818,283.565517 C107.181818,285.273791 108.565665,286.658621 110.272727,286.658621 C111.979789,286.658621 113.363636,285.273791 113.363636,283.565517 Z" id="Rectangle-15"></path>
                <path d="M282.333333,277.37931 L282.333333,59.2843037 C282.333333,29.9829184 306.31335,6.21724138 335.909091,6.21724138 C365.504832,6.21724138 389.484848,29.9829184 389.484848,59.2843037 C389.484848,60.9925776 390.868696,62.3774072 392.575758,62.3774072 C394.28282,62.3774072 395.666667,60.9925776 395.666667,59.2843037 C395.666667,26.5528828 368.905621,0.0310344828 335.909091,0.0310344828 C302.91256,0.0310344828 276.151515,26.5528828 276.151515,59.2843037 L276.151515,277.37931 C276.151515,279.087584 277.535362,280.472414 279.242424,280.472414 C280.949486,280.472414 282.333333,279.087584 282.333333,277.37931 Z" id="Rectangle-15-Copy"></path>
                <polygon id="Path-14" points="281.30303 127.87931 112.333333 127.87931 112.333333 134.065517 281.30303 134.065517"></polygon>
                <polygon id="Path-14-Copy" points="281.30303 197.989655 112.333333 197.989655 112.333333 204.175862 281.30303 204.175862"></polygon>
            </g>
        </g>
    </g>
</svg>