<?xml version="1.0" encoding="UTF-8"?>
<svg width="495px" height="431px" viewBox="0 0 495 431" version="1.1" xmlns="http://www.w3.org/2000/svg" xmlns:xlink="http://www.w3.org/1999/xlink">
    <!-- Generator: Sketch 46.2 (44496) - http://www.bohemiancoding.com/sketch -->
    <title>Rent payments</title>
    <desc>Created with Sketch.</desc>
    <defs></defs>
    <g id="Page-1" stroke="none" stroke-width="1" fill="none" fill-rule="evenodd">
        <g id="svg-android" transform="translate(-478.000000, -382.000000)" fill="#000">
            <g id="Rent-payments" transform="translate(478.000000, 382.000000)">
                <g id="Group-3">
                    <path d="M339.841751,423.891988 C338.559465,423.891988 337.891994,424.658631 337.891994,425.211212 L337.891994,423.891988 L339.841751,423.891988 Z M53.625,425.211212 C53.625,424.658631 52.9575291,423.891988 51.6752428,423.891988 L53.625,423.891988 L53.625,425.211212 Z M337.891994,288.708134 L344.079494,288.708134 L344.079494,425.211212 C344.079494,427.899391 342.182192,430.078591 339.841751,430.078591 L51.6752428,430.078591 C49.3348021,430.078591 47.4375,427.899391 47.4375,425.211212 L47.4375,160.851675 L53.625,160.851675 L53.625,423.891988 L337.891994,423.891988 L337.891994,288.708134 Z M53.625,425.211212 C53.625,424.658631 52.9575291,423.891988 51.6752428,423.891988 L53.625,423.891988 L53.625,425.211212 Z M337.891994,423.891988 L339.841751,423.891988 C338.559465,423.891988 337.891994,424.658631 337.891994,425.211212 L337.891994,423.891988 Z M337.891994,423.891988 L337.891994,288.708134 L344.079494,288.708134 L344.079494,425.211212 C344.079494,427.899391 342.182192,430.078591 339.841751,430.078591 L51.6752428,430.078591 C49.3348021,430.078591 47.4375,427.899391 47.4375,425.211212 L47.4375,160.851675 L53.625,160.851675 L53.625,423.891988 L337.891994,423.891988 Z" id="Rectangle-3" fill-rule="nonzero"></path>
                    <path d="M195.322284,188.493943 C212.068786,188.493943 225.644568,174.919812 225.644568,158.175201 C225.644568,141.43059 212.068786,127.856459 195.322284,127.856459 C178.575781,127.856459 165,141.43059 165,158.175201 C165,174.919812 178.575781,188.493943 195.322284,188.493943 Z M195.322284,194.680546 C175.158487,194.680546 158.8125,178.336546 158.8125,158.175201 C158.8125,138.013856 175.158487,121.669856 195.322284,121.669856 C215.486081,121.669856 231.832068,138.013856 231.832068,158.175201 C231.832068,178.336546 215.486081,194.680546 195.322284,194.680546 Z" id="Oval-3" fill-rule="nonzero"></path>
                    <path d="M246.093075,424.111371 L246.093075,272.210526 L144.375,272.210526 L144.375,424.111371 L246.093075,424.111371 Z M144.375,266.023923 L246.093075,266.023923 C249.510337,266.023923 252.280575,268.79376 252.280575,272.210526 L252.280575,430.297974 L138.1875,430.297974 L138.1875,272.210526 C138.1875,268.79376 140.957738,266.023923 144.375,266.023923 Z" id="Rectangle-4" fill-rule="nonzero"></path>
                    <g id="Group-4" transform="translate(273.823379, 82.137025)">
                        <path d="M110.34124,220.655502 C49.4014397,220.655502 0,171.260069 0,110.327751 C0,49.3954329 49.4014397,0 110.34124,0 C171.281041,0 220.68248,49.3954329 220.68248,110.327751 C220.68248,171.260069 171.281041,220.655502 110.34124,220.655502 Z M110.34124,214.4689 C167.863746,214.4689 214.49498,167.843335 214.49498,110.327751 C214.49498,52.8121669 167.863746,6.18660287 110.34124,6.18660287 C52.818734,6.18660287 6.1875,52.8121669 6.1875,110.327751 C6.1875,167.843335 52.818734,214.4689 110.34124,214.4689 Z" id="Oval-2" fill-rule="nonzero"></path>
                        <path d="M105.710846,63.9282297 L105.710846,74.236096 C102.497745,74.8811626 99.3802378,76.1809564 96.6620735,78.2806974 C90.3927463,82.8837922 87.1035296,91.2549911 89.4419061,99.24984 C92.1012413,108.844061 101.120015,114.36122 109.990167,114.191331 L111.008156,114.191331 C111.052138,114.191957 111.096127,114.191957 111.140109,114.191331 C115.894609,114.090805 121.028289,117.458211 122.24371,121.907501 C122.255946,121.940363 122.268514,121.973089 122.281411,122.005675 C123.272288,125.366266 121.625083,129.756466 118.699603,131.88159 C118.655094,131.91354 118.611104,131.946266 118.56765,131.979754 C113.578114,135.858055 104.767911,134.797162 101.167609,129.564773 C100.11356,128.051854 99.5027509,126.153135 99.5086676,124.361758 L89.8566439,124.361758 C89.8431311,128.405927 91.1168121,132.270848 93.3441904,135.474618 C96.4312454,139.947753 100.894061,142.673239 105.710846,143.858342 L105.710846,154.401812 L115.362869,154.401812 L115.362869,144.074313 C118.529119,143.423959 121.601445,142.154222 124.279689,140.08861 C130.547626,135.485515 133.838358,127.114316 131.499847,119.119467 C128.840598,109.524241 119.821284,104.008087 110.951595,104.177976 L109.933606,104.177976 C109.895907,104.177516 109.858203,104.177516 109.820504,104.177976 C105.066448,104.278502 99.9137631,100.931734 98.6980521,96.4814389 C98.6858159,96.4485809 98.6732483,96.4158578 98.6603513,96.383275 C97.6699378,93.0246946 99.3183297,88.6108404 102.24215,86.487727 C102.286662,86.4557744 102.330656,86.4230451 102.374112,86.3895531 C107.362944,82.5112522 116.174334,83.5917882 119.774153,88.824167 C119.780437,88.8241798 119.78672,88.8241798 119.793004,88.824167 C120.848192,90.3390969 121.440006,92.2398363 121.433095,94.0271922 L131.085118,94.0271922 C131.100562,89.979002 129.824217,86.0964589 127.597572,82.8946993 C124.540342,78.4593425 120.128807,75.7078901 115.362869,74.491332 L115.362869,63.9282297 L105.710846,63.9282297 Z" id="Path"></path>
                    </g>
                    <polygon id="Path-2" fill-rule="nonzero" points="301.675238 124.572519 306.186212 120.338011 193.856414 0.709044122 0.591385842 209.939442 5.13688564 214.136879 193.893586 9.78723653"></polygon>
                </g>
            </g>
        </g>
    </g>
</svg>